<svg xmlns="http://www.w3.org/2000/svg" xmlns:xlink="http://www.w3.org/1999/xlink" width="150" zoomAndPan="magnify" viewBox="0 0 112.5 112.499997" height="150" preserveAspectRatio="xMidYMid meet" version="1.0"><defs><g/><clipPath id="7784e3bd8a"><path d="M 66.472656 21.167969 L 101.722656 21.167969 L 101.722656 60.167969 L 66.472656 60.167969 Z M 66.472656 21.167969 " clip-rule="nonzero"/></clipPath><clipPath id="3d10829b87"><path d="M 58 83 L 87 83 L 87 91 L 58 91 Z M 58 83 " clip-rule="nonzero"/></clipPath><clipPath id="d2d34247ae"><path d="M 72.652344 72.71875 L 86.972656 87.035156 L 72.652344 101.355469 L 58.332031 87.035156 Z M 72.652344 72.71875 " clip-rule="nonzero"/></clipPath><clipPath id="41dc4e26ef"><path d="M 72.652344 72.71875 L 86.972656 87.035156 L 72.652344 101.355469 L 58.332031 87.035156 Z M 72.652344 72.71875 " clip-rule="nonzero"/></clipPath><clipPath id="c3c7807f2d"><path d="M 72.652344 72.71875 L 86.972656 87.035156 L 72.652344 101.355469 L 58.332031 87.035156 Z M 72.652344 72.71875 " clip-rule="nonzero"/></clipPath></defs><g fill="#000000" fill-opacity="1"><g transform="translate(11.183658, 80.216286)"><g><path d="M 27.304688 -40.234375 C 25.984375 -39.4375 24.703125 -38.597656 23.464844 -37.695312 C 23.253906 -40.507812 22.855469 -43.320312 22.25 -46.070312 C 21.34375 -50.140625 19.308594 -57.277344 14.105469 -57.59375 C 5.960938 -58.097656 -3.105469 -34.652344 4.871094 -33.539062 C 6.023438 -33.394531 6.527344 -35.15625 5.351562 -35.324219 C 2.265625 -35.742188 4.46875 -43.132812 4.972656 -44.726562 C 5.917969 -47.769531 7.492188 -50.730469 9.613281 -53.121094 C 16.625 -61.097656 20.234375 -47.664062 21.074219 -42.398438 C 21.386719 -40.402344 21.597656 -38.410156 21.703125 -36.394531 C 14.378906 -30.726562 8.480469 -23.296875 4.765625 -14.753906 C 2.5625 -9.65625 0.691406 -3.359375 2.351562 2.183594 C 3.546875 6.191406 6.820312 7.871094 10.410156 5.4375 C 15.007812 2.351562 17.398438 -3.820312 19.289062 -8.792969 C 21.472656 -14.523438 22.835938 -20.570312 23.382812 -26.675781 C 23.65625 -29.59375 23.71875 -32.554688 23.589844 -35.511719 C 25.082031 -36.625 26.636719 -37.675781 28.230469 -38.640625 C 29.238281 -39.25 28.3125 -40.84375 27.304688 -40.234375 Z M 17.125 -8.289062 C 15.910156 -5.269531 8.625 10.367188 4.574219 2.894531 C 1.722656 -2.351562 4.679688 -10.242188 6.949219 -15.132812 C 10.390625 -22.542969 15.511719 -29.007812 21.808594 -34.128906 C 22.015625 -25.3125 20.402344 -16.457031 17.125 -8.289062 Z M 17.125 -8.289062 "/></g></g></g><g fill="#000000" fill-opacity="1"><g transform="translate(24.40354, 71.435273)"><g><path d="M 5.046875 -1.523438 C 11.15625 4.210938 19.285156 -7.015625 21.917969 -11.464844 C 22.414062 -12.300781 21.113281 -13.054688 20.617188 -12.234375 C 18.648438 -8.878906 16.136719 -5.542969 12.953125 -3.25 C 11 -1.847656 8.382812 -0.753906 6.261719 -2.464844 C 4.859375 -3.609375 4.292969 -5.492188 3.96875 -7.21875 C 2.566406 -14.59375 3.96875 -22.996094 6.195312 -30.046875 C 7.359375 -33.722656 8.878906 -37.285156 10.8125 -40.636719 C 11.753906 -42.28125 12.796875 -43.886719 14.082031 -45.289062 C 15.296875 -46.609375 19.472656 -50.507812 21.320312 -47.617188 C 23.132812 -44.777344 20.910156 -39.371094 19.625 -36.703125 C 18.941406 -35.246094 18.136719 -33.828125 17.179688 -32.542969 C 16.597656 -31.773438 17.898438 -31.019531 18.460938 -31.789062 C 21.40625 -35.691406 23.851562 -41.371094 23.21875 -46.335938 C 22.910156 -48.695312 21.4375 -50.269531 18.941406 -49.996094 C 15.640625 -49.636719 12.988281 -46.609375 11.207031 -44.058594 C 6.570312 -37.488281 3.851562 -29.34375 2.6875 -21.4375 C 2.105469 -17.382812 1.847656 -13.191406 2.222656 -9.085938 C 2.445312 -6.449219 3.011719 -3.4375 5.046875 -1.523438 Z M 5.046875 -1.523438 "/></g></g></g><g fill="#000000" fill-opacity="1"><g transform="translate(47.79096, 71.435273)"><g><path d="M 9.597656 -16.460938 C 10.472656 -15.46875 10.832031 -14.066406 12.097656 -13.449219 C 15.332031 -11.890625 17.929688 -16.21875 19.386719 -18.429688 C 19.917969 -19.230469 18.617188 -19.984375 18.085938 -19.179688 C 17.265625 -17.929688 16.375 -16.527344 15.210938 -15.554688 C 13.261719 -13.910156 12.285156 -15.226562 11.191406 -16.835938 C 10.199219 -18.308594 8.964844 -20.207031 6.980469 -19.285156 C 4.980469 -18.34375 4.191406 -15.449219 2.925781 -13.789062 C 2.328125 -13.003906 1.472656 -11.875 0.648438 -13.226562 C 0.273438 -13.84375 0.410156 -15.144531 0.429688 -15.84375 C 0.429688 -16.648438 0.480469 -17.453125 0.546875 -18.257812 C 4.535156 -24.363281 7.441406 -31.378906 9.496094 -38.359375 C 9.855469 -39.609375 13.039062 -50.339844 8.433594 -49.140625 C 6.964844 -48.765625 6.089844 -46.488281 5.527344 -45.308594 C 4.585938 -43.324219 3.851562 -41.234375 3.183594 -39.132812 C 1.523438 -34.03125 0.34375 -28.78125 -0.375 -23.457031 C -0.597656 -21.867188 -0.769531 -20.277344 -0.90625 -18.683594 C -0.925781 -18.597656 -0.941406 -18.53125 -0.925781 -18.460938 C -0.992188 -17.726562 -1.027344 -16.992188 -1.0625 -16.253906 C -1.113281 -14.785156 -1.199219 -12.796875 -0.1875 -11.582031 C 1.589844 -9.410156 3.765625 -12.320312 4.738281 -13.808594 C 5.234375 -14.578125 5.644531 -15.398438 6.144531 -16.167969 C 6.347656 -16.496094 6.691406 -17.230469 7.03125 -17.433594 C 8.46875 -18.34375 9 -17.144531 9.597656 -16.460938 Z M 0.925781 -21.851562 C 1.421875 -26.007812 2.207031 -30.148438 3.285156 -34.203125 C 4.261719 -37.832031 5.234375 -42.484375 7.375 -45.648438 C 9.71875 -49.125 9.53125 -45.445312 9.238281 -43.683594 C 8.863281 -41.40625 8.214844 -39.164062 7.496094 -36.976562 C 5.800781 -31.738281 3.660156 -26.539062 0.90625 -21.730469 C 0.90625 -21.765625 0.90625 -21.796875 0.925781 -21.851562 Z M 0.925781 -21.851562 "/></g></g></g><g clip-path="url(#7784e3bd8a)"><path fill="#000000" d="M 101.398438 28.859375 L 95.664062 25.511719 C 95.773438 25.183594 95.84375 24.839844 95.84375 24.476562 C 95.84375 22.65625 94.378906 21.171875 92.582031 21.171875 C 90.78125 21.171875 89.316406 22.65625 89.316406 24.476562 C 89.316406 26.296875 90.78125 27.78125 92.582031 27.78125 C 93.550781 27.78125 94.414062 27.339844 95.011719 26.65625 L 100.417969 29.816406 L 100.417969 38.964844 L 92.585938 43.539062 L 84.753906 38.964844 L 84.753906 29.433594 C 84.753906 29.199219 84.628906 28.980469 84.425781 28.863281 L 75.941406 23.90625 C 75.738281 23.789062 75.492188 23.789062 75.289062 23.90625 L 66.800781 28.863281 C 66.601562 28.980469 66.476562 29.199219 66.476562 29.433594 L 66.476562 39.347656 C 66.476562 39.585938 66.601562 39.800781 66.800781 39.921875 L 74.960938 44.6875 L 74.960938 54.546875 C 74.960938 54.78125 75.085938 55 75.285156 55.121094 L 83.773438 60.074219 C 83.875 60.136719 83.988281 60.164062 84.097656 60.164062 C 84.210938 60.164062 84.324219 60.136719 84.425781 60.074219 L 90.347656 56.613281 C 90.933594 57.171875 91.714844 57.519531 92.582031 57.519531 C 94.378906 57.519531 95.84375 56.035156 95.84375 54.214844 C 95.84375 52.394531 94.378906 50.910156 92.582031 50.910156 C 90.78125 50.910156 89.316406 52.394531 89.316406 54.214844 C 89.316406 54.683594 89.417969 55.128906 89.589844 55.53125 L 84.097656 58.742188 L 76.265625 54.164062 L 76.265625 44.6875 L 84.101562 40.109375 L 92.257812 44.875 C 92.359375 44.933594 92.472656 44.964844 92.585938 44.964844 C 92.699219 44.964844 92.8125 44.933594 92.910156 44.875 L 101.398438 39.917969 C 101.601562 39.800781 101.722656 39.582031 101.722656 39.347656 L 101.722656 29.433594 C 101.722656 29.195312 101.601562 28.980469 101.398438 28.859375 Z M 92.582031 26.460938 C 91.5 26.460938 90.621094 25.570312 90.621094 24.476562 C 90.621094 23.382812 91.5 22.492188 92.582031 22.492188 C 93.660156 22.492188 94.539062 23.382812 94.539062 24.476562 C 94.539062 25.570312 93.660156 26.460938 92.582031 26.460938 Z M 92.582031 52.230469 C 93.660156 52.230469 94.539062 53.121094 94.539062 54.214844 C 94.539062 55.308594 93.660156 56.199219 92.582031 56.199219 C 91.5 56.199219 90.621094 55.308594 90.621094 54.214844 C 90.621094 53.121094 91.5 52.230469 92.582031 52.230469 Z M 83.449219 38.964844 L 75.613281 43.542969 L 67.78125 38.964844 L 67.78125 29.816406 L 75.613281 25.242188 L 83.449219 29.816406 Z M 83.449219 38.964844 " fill-opacity="1" fill-rule="nonzero"/></g><g clip-path="url(#3d10829b87)"><g clip-path="url(#d2d34247ae)"><g clip-path="url(#41dc4e26ef)"><g clip-path="url(#c3c7807f2d)"><path fill="#000000" d="M 86.492188 86.558594 L 84.039062 84.105469 C 83.777344 83.839844 83.347656 83.839844 83.085938 84.105469 L 80.828125 86.363281 L 64.476562 86.359375 L 62.21875 84.105469 C 61.957031 83.839844 61.527344 83.839844 61.265625 84.105469 L 58.808594 86.558594 C 58.546875 86.824219 58.546875 87.25 58.808594 87.511719 L 61.265625 89.96875 C 61.527344 90.230469 61.957031 90.230469 62.21875 89.96875 L 64.476562 87.710938 L 80.828125 87.710938 L 83.085938 89.96875 C 83.347656 90.230469 83.777344 90.230469 84.039062 89.96875 L 86.492188 87.511719 C 86.757812 87.25 86.757812 86.824219 86.492188 86.558594 Z M 61.742188 88.535156 L 60.242188 87.035156 L 61.742188 85.535156 L 63.242188 87.035156 Z M 83.5625 88.535156 L 82.0625 87.035156 L 83.5625 85.535156 L 85.0625 87.035156 Z M 83.5625 88.535156 " fill-opacity="1" fill-rule="nonzero"/></g></g></g></g><g fill="#000000" fill-opacity="1"><g transform="translate(48.223278, 78.335511)"><g><path d="M 2.535156 0 C 2.734375 0 2.878906 -0.144531 2.878906 -0.34375 L 2.878906 -0.378906 C 2.789062 -1.8125 2.753906 -3.1875 2.753906 -4.617188 L 2.753906 -5.449219 C 6.210938 -7.242188 7.730469 -9.160156 7.730469 -10.628906 C 7.730469 -12.058594 6.320312 -13.019531 3.839844 -13.019531 L 3.53125 -13.019531 C 3.441406 -13.019531 3.332031 -13.019531 3.222656 -13 C 3.242188 -13.089844 3.257812 -13.164062 3.257812 -13.289062 C 3.3125 -13.507812 3.132812 -13.6875 2.914062 -13.6875 C 2.714844 -13.6875 2.570312 -13.5625 2.554688 -13.363281 L 2.5 -12.929688 C 1.972656 -12.855469 1.449219 -12.730469 0.886719 -12.566406 C 0.722656 -12.511719 0.632812 -12.402344 0.632812 -12.203125 C 0.632812 -12.167969 0.632812 -12.132812 0.652344 -12.113281 C 0.707031 -11.949219 0.832031 -11.859375 0.996094 -11.859375 C 1.050781 -11.859375 1.085938 -11.859375 1.105469 -11.878906 C 1.539062 -12.003906 1.972656 -12.113281 2.40625 -12.1875 C 2.191406 -10.101562 2.0625 -8.019531 2.027344 -5.902344 C 1.414062 -5.59375 0.761719 -5.304688 0.0742188 -5.035156 C -0.0898438 -4.980469 -0.164062 -4.851562 -0.164062 -4.691406 C -0.164062 -4.636719 -0.164062 -4.582031 -0.144531 -4.5625 C -0.0742188 -4.398438 0.0351562 -4.328125 0.199219 -4.328125 C 0.378906 -4.328125 1.8125 -4.996094 2.011719 -5.089844 C 2.011719 -3.496094 2.027344 -1.917969 2.15625 -0.324219 C 2.171875 -0.125 2.316406 0 2.515625 0 Z M 2.753906 -6.28125 C 2.804688 -8.292969 2.933594 -10.265625 3.152344 -12.277344 C 3.421875 -12.292969 3.65625 -12.3125 3.894531 -12.3125 C 5.9375 -12.3125 7.007812 -11.605469 7.007812 -10.574219 C 7.007812 -9.414062 5.648438 -7.820312 2.753906 -6.28125 Z M 2.753906 -6.28125 "/></g></g></g><g fill="#000000" fill-opacity="1"><g transform="translate(55.700483, 78.335511)"><g><path d="M 0.363281 -2.554688 C 0.5625 -2.554688 0.722656 -2.699219 0.722656 -2.898438 C 0.816406 -4.835938 2.699219 -6.972656 3.640625 -6.789062 C 3.839844 -6.734375 4 -6.863281 4.054688 -7.0625 C 4.109375 -7.261719 3.984375 -7.441406 3.785156 -7.496094 C 3.65625 -7.515625 3.566406 -7.53125 3.496094 -7.53125 C 2.480469 -7.53125 1.414062 -6.355469 0.886719 -5.484375 C 0.941406 -6.011719 0.960938 -6.554688 0.960938 -7.117188 C 0.960938 -7.316406 0.796875 -7.476562 0.597656 -7.476562 C 0.398438 -7.476562 0.234375 -7.316406 0.234375 -7.117188 C 0.21875 -5.738281 0.0195312 -4.34375 0 -2.914062 C 0 -2.714844 0.164062 -2.570312 0.363281 -2.554688 Z M 0.363281 -2.554688 "/></g></g></g><g fill="#000000" fill-opacity="1"><g transform="translate(59.88265, 78.335511)"><g><path d="M 2.878906 -3.386719 C 3.152344 -3.875 3.3125 -4.4375 3.3125 -4.996094 C 3.511719 -4.960938 3.710938 -4.941406 3.945312 -4.941406 C 4.363281 -4.941406 4.816406 -5.015625 5.304688 -5.140625 C 5.484375 -5.195312 5.578125 -5.324219 5.578125 -5.523438 L 5.578125 -5.59375 C 5.523438 -5.738281 5.378906 -5.867188 5.214844 -5.867188 C 5.160156 -5.867188 5.179688 -5.847656 5.125 -5.847656 C 4.707031 -5.722656 4.328125 -5.667969 3.964844 -5.667969 C 3.675781 -5.667969 3.421875 -5.722656 3.203125 -5.777344 C 3.058594 -6.429688 2.460938 -7.40625 1.773438 -7.316406 C 1.71875 -7.351562 1.648438 -7.371094 1.574219 -7.371094 C 1.484375 -7.371094 1.394531 -7.351562 1.339844 -7.296875 C 0.816406 -6.84375 0.417969 -6.265625 0.21875 -5.558594 C 0.0898438 -5.160156 0.0351562 -4.78125 0.0351562 -4.417969 C 0.0351562 -3.1875 0.722656 -2.40625 1.503906 -2.40625 C 1.992188 -2.40625 2.460938 -2.714844 2.878906 -3.386719 Z M 2.246094 -3.765625 C 1.972656 -3.332031 1.71875 -3.113281 1.484375 -3.113281 C 1.066406 -3.113281 0.777344 -3.710938 0.777344 -4.492188 C 0.777344 -5.070312 0.960938 -5.757812 1.414062 -6.335938 C 1.574219 -5.921875 1.972656 -5.503906 2.570312 -5.234375 C 2.570312 -5.160156 2.589844 -5.089844 2.589844 -4.996094 C 2.589844 -4.542969 2.445312 -4.109375 2.246094 -3.765625 Z M 2.246094 -3.765625 "/></g></g></g><g fill="#000000" fill-opacity="1"><g transform="translate(64.644165, 78.335511)"><g><path d="M -0.488281 5.414062 C -0.289062 5.503906 -0.0898438 5.539062 0.0742188 5.539062 C 0.632812 5.539062 1.285156 5.214844 1.917969 4.21875 C 3.242188 2.117188 3.621094 -0.179688 3.695312 -2.660156 C 4.492188 -3.457031 5.324219 -4.199219 6.101562 -4.941406 C 6.175781 -5.015625 6.210938 -5.105469 6.210938 -5.214844 C 6.210938 -5.304688 6.175781 -5.394531 6.101562 -5.46875 C 6.03125 -5.539062 5.9375 -5.578125 5.847656 -5.578125 C 5.757812 -5.578125 5.667969 -5.539062 5.59375 -5.46875 L 3.695312 -3.675781 C 3.695312 -4.671875 3.65625 -5.648438 3.640625 -6.679688 L 3.640625 -6.753906 C 3.621094 -6.988281 3.496094 -7.097656 3.277344 -7.097656 C 3.078125 -7.117188 2.933594 -6.988281 2.914062 -6.789062 C 2.714844 -5.195312 1.519531 -3.242188 0.671875 -2.914062 C 0.578125 -2.878906 0.507812 -2.859375 0.453125 -2.859375 C 0.21875 -2.859375 0.109375 -3.042969 0.109375 -3.421875 C 0.109375 -4.363281 0.960938 -6.101562 2.355469 -6.390625 C 2.554688 -6.429688 2.644531 -6.535156 2.644531 -6.734375 L 2.644531 -6.808594 C 2.589844 -7.007812 2.445312 -7.097656 2.28125 -7.097656 L 2.207031 -7.097656 C 0.542969 -6.773438 -0.617188 -4.796875 -0.617188 -3.441406 C -0.617188 -2.988281 -0.472656 -2.589844 -0.179688 -2.355469 C 0 -2.207031 0.21875 -2.136719 0.453125 -2.136719 C 1.375 -2.136719 2.40625 -3.421875 2.96875 -4.5625 L 2.96875 -2.96875 C 1.25 -1.25 -0.378906 0.707031 -1.015625 3.078125 C -1.140625 3.441406 -1.195312 3.839844 -1.195312 4.183594 C -1.195312 4.707031 -1.015625 5.179688 -0.488281 5.414062 Z M -0.199219 4.742188 C -0.378906 4.671875 -0.472656 4.453125 -0.472656 4.09375 C -0.472656 2.988281 0.523438 0.597656 2.933594 -1.902344 C 2.804688 0.253906 2.390625 2.082031 1.304688 3.820312 C 0.886719 4.472656 0.472656 4.796875 0.0742188 4.796875 C -0.0195312 4.796875 -0.109375 4.78125 -0.199219 4.742188 Z M -0.199219 4.742188 "/></g></g></g><g fill="#000000" fill-opacity="1"><g transform="translate(70.03934, 78.335511)"><g><path d="M 0.363281 -2.554688 C 0.5625 -2.554688 0.722656 -2.699219 0.722656 -2.898438 C 0.816406 -4.835938 2.699219 -6.972656 3.640625 -6.789062 C 3.839844 -6.734375 4 -6.863281 4.054688 -7.0625 C 4.109375 -7.261719 3.984375 -7.441406 3.785156 -7.496094 C 3.65625 -7.515625 3.566406 -7.53125 3.496094 -7.53125 C 2.480469 -7.53125 1.414062 -6.355469 0.886719 -5.484375 C 0.941406 -6.011719 0.960938 -6.554688 0.960938 -7.117188 C 0.960938 -7.316406 0.796875 -7.476562 0.597656 -7.476562 C 0.398438 -7.476562 0.234375 -7.316406 0.234375 -7.117188 C 0.21875 -5.738281 0.0195312 -4.34375 0 -2.914062 C 0 -2.714844 0.164062 -2.570312 0.363281 -2.554688 Z M 0.363281 -2.554688 "/></g></g></g><g fill="#000000" fill-opacity="1"><g transform="translate(74.221507, 78.335511)"><g><path d="M -0.0546875 -2.570312 C 0.109375 -2.460938 0.289062 -2.40625 0.488281 -2.40625 C 1.160156 -2.40625 1.9375 -3.1875 2.355469 -3.855469 C 2.300781 -3.003906 2.699219 -2.40625 3.332031 -2.40625 C 4.054688 -2.40625 5.105469 -3.1875 6.265625 -5.304688 C 6.28125 -5.378906 6.300781 -5.433594 6.300781 -5.46875 C 6.300781 -5.613281 6.230469 -5.722656 6.101562 -5.792969 C 6.066406 -5.8125 6.011719 -5.832031 5.9375 -5.832031 C 5.792969 -5.832031 5.683594 -5.777344 5.613281 -5.648438 C 5.035156 -4.492188 3.964844 -3.152344 3.441406 -3.152344 C 3.242188 -3.152344 3.132812 -3.3125 3.132812 -3.800781 C 3.132812 -4.039062 3.152344 -4.328125 3.222656 -4.691406 C 3.277344 -5.070312 3.351562 -5.449219 3.476562 -5.792969 C 3.566406 -6.066406 3.402344 -6.300781 3.132812 -6.300781 C 3.003906 -6.300781 2.898438 -6.230469 2.804688 -6.082031 C 2.371094 -5.25 1.664062 -3.875 0.921875 -3.332031 C 0.761719 -3.203125 0.632812 -3.152344 0.507812 -3.152344 C 0.308594 -3.152344 0.21875 -3.296875 0.21875 -3.601562 C 0.21875 -4.542969 1.285156 -6.644531 3.222656 -6.644531 C 3.421875 -6.644531 3.585938 -6.808594 3.585938 -7.007812 C 3.585938 -7.207031 3.421875 -7.371094 3.222656 -7.371094 C 0.960938 -7.371094 -0.488281 -5.070312 -0.488281 -3.601562 C -0.488281 -3.152344 -0.34375 -2.769531 -0.0546875 -2.570312 Z M -0.0546875 -2.570312 "/></g></g></g><g fill="#000000" fill-opacity="1"><g transform="translate(79.634784, 78.335511)"><g><path d="M 0.5625 -2.390625 C 0.761719 -2.390625 0.867188 -2.480469 0.90625 -2.660156 C 1.394531 -4.542969 2.445312 -6.519531 2.699219 -6.664062 C 2.824219 -6.375 2.789062 -5.339844 2.859375 -3.296875 C 2.878906 -3.097656 3.003906 -2.953125 3.203125 -2.953125 C 3.402344 -2.933594 3.53125 -3.042969 3.585938 -3.242188 C 3.675781 -3.765625 4.128906 -5.304688 4.507812 -5.832031 C 4.652344 -5.324219 4.761719 -3.765625 5.957031 -3.566406 C 6.011719 -3.566406 6.066406 -3.550781 6.136719 -3.550781 C 7.007812 -3.550781 7.839844 -4.542969 8.4375 -5.234375 C 8.492188 -5.285156 8.511719 -5.359375 8.511719 -5.449219 C 8.511719 -5.578125 8.457031 -5.667969 8.363281 -5.738281 C 8.3125 -5.792969 8.238281 -5.832031 8.148438 -5.832031 C 8.019531 -5.832031 7.929688 -5.777344 7.859375 -5.683594 C 6.84375 -4.382812 6.300781 -4.21875 6.066406 -4.273438 C 5.195312 -4.417969 5.46875 -6.136719 4.871094 -6.535156 C 4.78125 -6.609375 4.671875 -6.644531 4.542969 -6.644531 C 4.492188 -6.644531 4.4375 -6.644531 4.417969 -6.625 C 4.109375 -6.554688 3.800781 -6.175781 3.53125 -5.503906 C 3.476562 -6.589844 3.496094 -7.207031 2.914062 -7.351562 C 2.84375 -7.371094 2.769531 -7.386719 2.699219 -7.386719 C 2.460938 -7.386719 2.15625 -7.277344 1.882812 -6.789062 C 1.519531 -6.191406 1.195312 -5.558594 0.921875 -4.925781 L 0.921875 -7.078125 C 0.921875 -7.277344 0.761719 -7.441406 0.5625 -7.441406 C 0.363281 -7.441406 0.199219 -7.277344 0.199219 -7.078125 L 0.199219 -2.753906 C 0.199219 -2.554688 0.363281 -2.390625 0.5625 -2.390625 Z M 0.5625 -2.390625 "/></g></g></g><g fill="#000000" fill-opacity="1"><g transform="translate(87.256825, 78.335511)"><g><path d="M 0.5625 -2.390625 C 0.761719 -2.390625 0.867188 -2.480469 0.90625 -2.660156 C 1.394531 -4.542969 2.445312 -6.519531 2.699219 -6.664062 C 2.824219 -6.375 2.789062 -5.339844 2.859375 -3.296875 C 2.878906 -3.097656 3.003906 -2.953125 3.203125 -2.953125 C 3.402344 -2.933594 3.53125 -3.042969 3.585938 -3.242188 C 3.675781 -3.765625 4.128906 -5.304688 4.507812 -5.832031 C 4.652344 -5.324219 4.761719 -3.765625 5.957031 -3.566406 C 6.011719 -3.566406 6.066406 -3.550781 6.136719 -3.550781 C 7.007812 -3.550781 7.839844 -4.542969 8.4375 -5.234375 C 8.492188 -5.285156 8.511719 -5.359375 8.511719 -5.449219 C 8.511719 -5.578125 8.457031 -5.667969 8.363281 -5.738281 C 8.3125 -5.792969 8.238281 -5.832031 8.148438 -5.832031 C 8.019531 -5.832031 7.929688 -5.777344 7.859375 -5.683594 C 6.84375 -4.382812 6.300781 -4.21875 6.066406 -4.273438 C 5.195312 -4.417969 5.46875 -6.136719 4.871094 -6.535156 C 4.78125 -6.609375 4.671875 -6.644531 4.542969 -6.644531 C 4.492188 -6.644531 4.4375 -6.644531 4.417969 -6.625 C 4.109375 -6.554688 3.800781 -6.175781 3.53125 -5.503906 C 3.476562 -6.589844 3.496094 -7.207031 2.914062 -7.351562 C 2.84375 -7.371094 2.769531 -7.386719 2.699219 -7.386719 C 2.460938 -7.386719 2.15625 -7.277344 1.882812 -6.789062 C 1.519531 -6.191406 1.195312 -5.558594 0.921875 -4.925781 L 0.921875 -7.078125 C 0.921875 -7.277344 0.761719 -7.441406 0.5625 -7.441406 C 0.363281 -7.441406 0.199219 -7.277344 0.199219 -7.078125 L 0.199219 -2.753906 C 0.199219 -2.554688 0.363281 -2.390625 0.5625 -2.390625 Z M 0.5625 -2.390625 "/></g></g></g><g fill="#000000" fill-opacity="1"><g transform="translate(94.878866, 78.335511)"><g><path d="M 1.902344 -2.40625 C 3.078125 -2.40625 4.527344 -3.078125 5.882812 -5.304688 C 5.921875 -5.359375 5.9375 -5.414062 5.9375 -5.484375 C 5.9375 -5.648438 5.882812 -5.738281 5.757812 -5.792969 C 5.703125 -5.832031 5.632812 -5.847656 5.578125 -5.847656 C 5.449219 -5.847656 5.339844 -5.792969 5.269531 -5.683594 C 4.636719 -4.617188 3.945312 -3.910156 3.222656 -3.496094 C 2.804688 -3.277344 2.316406 -3.132812 1.828125 -3.132812 C 1.160156 -3.132812 0.578125 -3.421875 0.578125 -4.199219 C 0.578125 -4.292969 0.597656 -4.382812 0.617188 -4.507812 C 1.828125 -4.597656 3.257812 -5.484375 3.257812 -6.445312 C 3.257812 -6.972656 2.859375 -7.386719 2.28125 -7.386719 C 1.917969 -7.386719 1.484375 -7.222656 1.03125 -6.789062 C 0.324219 -6.121094 -0.125 -5.089844 -0.125 -4.199219 C -0.125 -3.242188 0.433594 -2.40625 1.902344 -2.40625 Z M 0.867188 -5.285156 C 1.359375 -6.300781 1.957031 -6.664062 2.300781 -6.664062 C 2.425781 -6.664062 2.5 -6.625 2.515625 -6.535156 C 2.605469 -6.121094 1.757812 -5.433594 0.867188 -5.285156 Z M 0.867188 -5.285156 "/></g></g></g><g fill="#000000" fill-opacity="1"><g transform="translate(99.911946, 78.335511)"><g><path d="M 0.363281 -2.554688 C 0.5625 -2.554688 0.722656 -2.699219 0.722656 -2.898438 C 0.816406 -4.835938 2.699219 -6.972656 3.640625 -6.789062 C 3.839844 -6.734375 4 -6.863281 4.054688 -7.0625 C 4.109375 -7.261719 3.984375 -7.441406 3.785156 -7.496094 C 3.65625 -7.515625 3.566406 -7.53125 3.496094 -7.53125 C 2.480469 -7.53125 1.414062 -6.355469 0.886719 -5.484375 C 0.941406 -6.011719 0.960938 -6.554688 0.960938 -7.117188 C 0.960938 -7.316406 0.796875 -7.476562 0.597656 -7.476562 C 0.398438 -7.476562 0.234375 -7.316406 0.234375 -7.117188 C 0.21875 -5.738281 0.0195312 -4.34375 0 -2.914062 C 0 -2.714844 0.164062 -2.570312 0.363281 -2.554688 Z M 0.363281 -2.554688 "/></g></g></g></svg>